<svg xmlns="http://www.w3.org/2000/svg" width="20" height="18.211" viewBox="0 0 20 18.211" fill="none">
  <path d="M 16.705 6.974 C 16.717 6.054 16.967 5.152 17.432 4.352 C 17.897 3.552 18.562 2.88 19.365 2.398 C 18.855 1.687 18.182 1.102 17.4 0.689 C 16.618 0.276 15.748 0.047 14.859 0.02 C 12.964 -0.175 11.126 1.127 10.16 1.127 C 9.175 1.127 7.688 0.039 6.086 0.071 C 5.05 0.104 4.041 0.398 3.156 0.925 C 2.271 1.452 1.541 2.193 1.037 3.078 C -1.146 6.768 0.482 12.192 2.573 15.175 C 3.62 16.636 4.843 18.267 6.443 18.209 C 8.009 18.146 8.593 17.234 10.484 17.234 C 12.356 17.234 12.905 18.209 14.537 18.173 C 16.218 18.146 17.276 16.705 18.286 15.231 C 19.038 14.19 19.616 13.04 20 11.822 C 19.024 11.419 18.191 10.745 17.605 9.882 C 17.019 9.02 16.706 8.009 16.705 6.974 Z" fill="currentColor" fill-rule="nonzero"/>
</svg>
