<svg xmlns="http://www.w3.org/2000/svg" width="74" height="15" viewBox="0 0 74 15" fill="none">
  <path d="M 57.518 3.59 L 59.147 3.59 L 59.147 14.602 L 57.518 14.602 L 57.518 3.59 Z M 72.189 10.635 L 70.322 5.861 L 70.266 5.861 L 68.328 10.635 L 66.573 10.635 L 69.479 3.963 L 67.823 0.251 L 69.521 0.251 L 74 10.635 L 72.189 10.635 Z M 62.952 4.841 C 62.418 4.841 61.674 5.11 61.674 5.777 C 61.674 6.626 62.6 6.952 63.401 6.952 C 64.116 6.952 64.454 6.796 64.889 6.583 C 64.762 5.563 63.892 4.841 62.952 4.841 Z M 63.148 10.876 C 61.969 10.876 60.747 10.352 60.242 9.19 L 61.688 8.581 C 61.997 9.19 62.572 9.389 63.176 9.389 C 64.019 9.389 64.875 8.879 64.889 7.972 L 64.889 7.859 C 64.594 8.029 63.963 8.284 63.19 8.284 C 61.632 8.284 60.045 7.419 60.045 5.805 C 60.045 4.331 61.323 3.382 62.755 3.382 C 63.85 3.382 64.454 3.878 64.833 4.459 L 64.889 4.459 L 64.889 3.609 L 66.461 3.609 L 66.461 7.831 C 66.461 9.785 65.015 10.876 63.148 10.876 M 53.082 9.295 L 50.765 9.295 L 50.765 13.069 L 53.082 13.069 C 54.3 13.069 54.991 12.052 54.991 11.182 C 54.991 10.329 54.3 9.295 53.082 9.295 Z M 53.04 14.602 L 49.138 14.602 L 49.138 3.59 L 50.765 3.59 L 50.765 7.762 L 53.04 7.762 C 54.845 7.762 56.62 9.082 56.62 11.182 C 56.62 13.283 54.845 14.602 53.04 14.602 M 31.758 4.839 C 30.633 4.839 29.691 5.79 29.691 7.095 C 29.691 8.415 30.633 9.38 31.758 9.38 C 32.869 9.38 33.741 8.415 33.741 7.095 C 33.741 5.79 32.869 4.839 31.758 4.839 Z M 33.629 10.019 L 33.572 10.019 C 33.206 10.458 32.504 10.856 31.618 10.856 C 29.761 10.856 28.06 9.21 28.06 7.095 C 28.06 4.995 29.761 3.363 31.618 3.363 C 32.504 3.363 33.206 3.76 33.572 4.215 L 33.629 4.215 L 33.629 3.675 C 33.629 2.242 32.869 1.475 31.646 1.475 C 30.647 1.475 30.028 2.199 29.775 2.81 L 28.355 2.214 C 28.763 1.22 29.846 0 31.646 0 C 33.558 0 35.176 1.135 35.176 3.902 L 35.176 10.629 L 33.629 10.629 L 33.629 10.019 Z M 36.301 3.59 L 37.932 3.59 L 37.932 14.603 L 36.301 14.603 L 36.301 3.59 Z M 40.336 7.223 C 40.294 8.67 41.447 9.408 42.277 9.408 C 42.924 9.408 43.472 9.082 43.655 8.614 L 40.336 7.223 Z M 45.399 8.472 C 45.09 9.309 44.147 10.856 42.221 10.856 C 40.308 10.856 38.72 9.338 38.72 7.109 C 38.72 5.009 40.294 3.363 42.403 3.363 C 44.105 3.363 45.09 4.413 45.498 5.023 L 44.232 5.875 C 43.81 5.251 43.233 4.839 42.403 4.839 C 41.574 4.839 40.983 5.223 40.603 5.974 L 45.567 8.047 L 45.399 8.472 Z M 5.85 9.706 L 5.85 8.117 L 9.618 8.117 C 9.506 7.223 9.211 6.57 8.761 6.117 C 8.212 5.563 7.354 4.952 5.85 4.952 C 3.529 4.952 1.715 6.84 1.715 9.181 C 1.715 11.523 3.529 13.41 5.85 13.41 C 7.102 13.41 8.016 12.913 8.69 12.275 L 9.802 13.396 C 8.859 14.304 7.608 15 5.85 15 C 2.672 15 0 12.388 0 9.181 C 0 5.974 2.672 3.363 5.85 3.363 C 7.565 3.363 8.859 3.931 9.871 4.995 C 10.913 6.045 11.236 7.521 11.236 8.713 C 11.236 9.082 11.208 9.422 11.151 9.706 L 5.85 9.706 Z M 15.521 4.839 C 14.396 4.839 13.425 5.776 13.425 7.109 C 13.425 8.458 14.396 9.38 15.521 9.38 C 16.645 9.38 17.616 8.458 17.616 7.109 C 17.616 5.776 16.645 4.839 15.521 4.839 Z M 15.521 10.856 C 13.467 10.856 11.794 9.281 11.794 7.109 C 11.794 4.952 13.467 3.363 15.521 3.363 C 17.574 3.363 19.247 4.952 19.247 7.109 C 19.247 9.281 17.574 10.856 15.521 10.856 Z M 23.65 4.839 C 22.525 4.839 21.554 5.776 21.554 7.109 C 21.554 8.458 22.525 9.38 23.65 9.38 C 24.775 9.38 25.745 8.458 25.745 7.109 C 25.745 5.776 24.775 4.839 23.65 4.839 Z M 23.65 10.856 C 21.597 10.856 19.924 9.281 19.924 7.109 C 19.924 4.952 21.597 3.363 23.65 3.363 C 25.703 3.363 27.376 4.952 27.376 7.109 C 27.376 9.281 25.703 10.856 23.65 10.856 Z" fill="currentColor" fill-rule="nonzero"/>
</svg>
